<svg width="152" height="27" viewBox="0 0 152 27" fill="none" xmlns="http://www.w3.org/2000/svg">
<path d="M21.816 0.512V6.848H15.048V26H7.056V6.848H0.36V0.512H21.816ZM40.3276 22.148H31.8316L30.5716 26H22.1836L31.5076 0.512H40.7236L50.0116 26H41.5876L40.3276 22.148ZM38.3836 16.136L36.0796 9.044L33.7756 16.136H38.3836ZM61.7993 26.252C58.7513 26.252 56.2313 25.544 54.2393 24.128C52.2713 22.688 51.2033 20.588 51.0353 17.828H59.5313C59.6513 19.292 60.2993 20.024 61.4753 20.024C61.9073 20.024 62.2673 19.928 62.5553 19.736C62.8673 19.52 63.0233 19.196 63.0233 18.764C63.0233 18.164 62.6993 17.684 62.0513 17.324C61.4033 16.94 60.3953 16.508 59.0273 16.028C57.3953 15.452 56.0393 14.888 54.9593 14.336C53.9033 13.784 52.9913 12.98 52.2233 11.924C51.4553 10.868 51.0833 9.512 51.1073 7.856C51.1073 6.2 51.5273 4.796 52.3673 3.644C53.2313 2.468 54.3953 1.58 55.8593 0.979998C57.3473 0.379999 59.0153 0.079999 60.8633 0.079999C63.9833 0.079999 66.4553 0.799999 68.2793 2.24C70.1273 3.68 71.0993 5.708 71.1953 8.324H62.5913C62.5673 7.604 62.3873 7.088 62.0513 6.776C61.7153 6.464 61.3073 6.308 60.8273 6.308C60.4913 6.308 60.2153 6.428 59.9993 6.668C59.7833 6.884 59.6753 7.196 59.6753 7.604C59.6753 8.18 59.9873 8.66 60.6113 9.044C61.2593 9.404 62.2793 9.848 63.6713 10.376C65.2793 10.976 66.5993 11.552 67.6313 12.104C68.6873 12.656 69.5993 13.424 70.3673 14.408C71.1353 15.392 71.5193 16.628 71.5193 18.116C71.5193 19.676 71.1353 21.08 70.3673 22.328C69.5993 23.552 68.4833 24.512 67.0193 25.208C65.5553 25.904 63.8153 26.252 61.7993 26.252ZM89.7353 26L82.3193 14.948V26H74.3273V0.512H82.3193V11.24L89.6273 0.512H98.6633L89.8793 12.716L99.2393 26H89.7353Z" fill="#7860C4"/>
<path d="M116.911 26L109.495 14.948V26H101.503V0.512H109.495V11.24L116.803 0.512H125.839L117.055 12.716L126.415 26H116.911ZM136.491 0.512V14.876C136.491 16.052 136.743 16.988 137.247 17.684C137.775 18.356 138.615 18.692 139.767 18.692C140.919 18.692 141.771 18.356 142.323 17.684C142.875 16.988 143.151 16.052 143.151 14.876V0.512H151.107V14.876C151.107 17.3 150.603 19.376 149.595 21.104C148.587 22.808 147.207 24.092 145.455 24.956C143.703 25.82 141.747 26.252 139.587 26.252C137.427 26.252 135.507 25.82 133.827 24.956C132.171 24.092 130.875 22.808 129.939 21.104C129.003 19.4 128.535 17.324 128.535 14.876V0.512H136.491Z" fill="#14111C"/>
</svg>
